<?xml version="1.0" encoding="UTF-8"?>
<!DOCTYPE svg PUBLIC "-//W3C//DTD SVG 1.1//EN" "http://www.w3.org/Graphics/SVG/1.1/DTD/svg11.dtd">
<svg xmlns="http://www.w3.org/2000/svg" version="1.1" width="4070px" height="2559px" style="shape-rendering:geometricPrecision; text-rendering:geometricPrecision; image-rendering:optimizeQuality; fill-rule:evenodd; clip-rule:evenodd" xmlns:xlink="http://www.w3.org/1999/xlink">
<g><path style="opacity:0.988" fill="#000000" d="M 1282.5,-0.5 C 1286.83,-0.5 1291.17,-0.5 1295.5,-0.5C 1376.93,-0.0945509 1456.26,13.4054 1533.5,40C 1667.04,89.2212 1769.87,175.055 1842,297.5C 1882.8,369.382 1912.3,445.715 1930.5,526.5C 1966.55,515.43 2002.88,505.263 2039.5,496C 2088.45,483.675 2138.12,476.008 2188.5,473C 2231.59,470.041 2273.59,475.375 2314.5,489C 2371.87,511.042 2404.7,552.542 2413,613.5C 2416.18,649.756 2412.84,685.423 2403,720.5C 2384.71,782.745 2359.04,841.745 2326,897.5C 2280.91,971.022 2230.91,1041.02 2176,1107.5C 2106.53,1191.32 2033.03,1271.82 1955.5,1349C 2020.71,1431.58 2081.88,1517.08 2139,1605.5C 2184.53,1677.88 2224.36,1753.55 2258.5,1832.5C 2309.25,1829.02 2352.08,1845.69 2387,1882.5C 2419.42,1923.02 2425.75,1967.35 2406,2015.5C 2388.64,2049.19 2362.14,2072.69 2326.5,2086C 2331.91,2137.76 2326.07,2188.26 2309,2237.5C 2281.6,2307.57 2231.76,2353.4 2159.5,2375C 2114.28,2387.27 2068.28,2391.6 2021.5,2388C 1938.44,2380.86 1857.6,2363.36 1779,2335.5C 1679.04,2456.93 1550.54,2528.76 1393.5,2551C 1368.1,2554.39 1342.77,2556.89 1317.5,2558.5C 1293.17,2558.5 1268.83,2558.5 1244.5,2558.5C 1107.4,2551.81 979.73,2513.64 861.5,2444C 789.793,2398.98 726.626,2343.82 672,2278.5C 657.975,2260.48 643.975,2242.48 630,2224.5C 563.604,2250.69 495.77,2272.35 426.5,2289.5C 421.769,2346.79 392.769,2386.29 339.5,2408C 284.842,2427.14 234.176,2419.81 187.5,2386C 160.95,2364.42 145.117,2336.58 140,2302.5C 74.777,2280.6 39.4436,2235.26 34,2166.5C 32.4822,2135.64 35.8155,2105.31 44,2075.5C 59.3081,2023.24 80.6415,1973.57 108,1926.5C 141.866,1868.75 179.2,1813.42 220,1760.5C 276.122,1688.7 335.789,1619.7 399,1553.5C 395.102,1507.92 392.102,1462.25 390,1416.5C 388.833,1368.18 388.167,1319.84 388,1271.5C 295.266,1159.75 212.266,1041.08 139,915.5C 95.1325,839.428 59.1325,759.762 31,676.5C 14.6453,626.555 4.14526,575.555 -0.5,523.5C -0.5,507.167 -0.5,490.833 -0.5,474.5C 2.10262,425.859 16.2693,380.859 42,339.5C 72.6244,296.907 113.458,268.74 164.5,255C 195.752,246.989 227.419,241.822 259.5,239.5C 280.59,192.607 316.59,164.44 367.5,155C 422.752,146.528 469.585,162.361 508,202.5C 528.661,227.304 539.161,255.97 539.5,288.5C 572.83,299.668 605.83,311.668 638.5,324.5C 647.158,315.657 654.991,305.991 662,295.5C 795.151,131.299 967.318,35.1321 1178.5,7C 1213.2,2.75502 1247.87,0.255022 1282.5,-0.5 Z M 1346.5,114.5 C 1442.83,108.865 1534.16,127.365 1620.5,170C 1716.1,220.27 1787.27,294.104 1834,391.5C 1856.73,439.644 1875.57,489.311 1890.5,540.5C 1773.19,583.822 1659.52,635.322 1549.5,695C 1496.45,724.233 1443.78,754.066 1391.5,784.5C 1230.86,655.765 1060.53,540.931 880.5,440C 879.483,438.951 879.316,437.784 880,436.5C 917.417,369.24 963.917,308.74 1019.5,255C 1111.46,169.374 1220.46,122.54 1346.5,114.5 Z M 251.5,256.5 C 252.552,256.351 253.552,256.517 254.5,257C 244.716,312.986 263.049,357.319 309.5,390C 360.374,420.419 412.707,423.085 466.5,398C 501.857,378.661 525.357,349.827 537,311.5C 566.474,321.823 595.641,332.823 624.5,344.5C 543.275,467.535 484.108,600.869 447,744.5C 415.467,867.9 396.8,993.233 391,1120.5C 389.017,1169.81 388.017,1219.14 388,1268.5C 294.836,1153.24 212.836,1030.24 142,899.5C 96.209,814.13 60.209,724.797 34,631.5C 20.7725,585.24 13.6058,538.073 12.5,490C 14.5932,355.913 81.9265,279.246 214.5,260C 226.961,258.55 239.295,257.383 251.5,256.5 Z M 863.5,466.5 C 866.016,466.755 868.35,467.589 870.5,469C 1040.37,568.402 1200.37,681.568 1350.5,808.5C 1180.71,910.209 1018.04,1022.04 862.5,1144C 809.129,1185.7 756.629,1228.53 705,1272.5C 703.988,1125.31 716.655,979.308 743,834.5C 760.957,735.97 788.623,640.303 826,547.5C 837.449,519.974 849.949,492.974 863.5,466.5 Z M 2189.5,487.5 C 2224.08,486.391 2258.08,490.224 2291.5,499C 2320.35,506.89 2344.85,521.723 2365,543.5C 2380.57,564.533 2389.24,588.2 2391,614.5C 2392.53,646.63 2388.2,677.964 2378,708.5C 2362.61,754.288 2342.61,797.955 2318,839.5C 2264.44,928.952 2203.77,1013.29 2136,1092.5C 2069.88,1169.12 1999.72,1242.12 1925.5,1311.5C 1765.76,1117.93 1588.09,942.759 1392.5,786C 1552.15,693.346 1718.81,615.512 1892.5,552.5C 1893.09,552.709 1893.59,553.043 1894,553.5C 1913.15,624.917 1927.82,697.25 1938,770.5C 1941.47,781.317 1948.64,785.15 1959.5,782C 1964.78,778.618 1967.95,773.784 1969,767.5C 1962.96,690.361 1951.46,614.027 1934.5,538.5C 1998.26,518.143 2063.26,502.976 2129.5,493C 2149.6,490.52 2169.6,488.687 2189.5,487.5 Z M 1351.5,809.5 C 1371.62,825.745 1391.62,842.245 1411.5,859C 1567.04,994.878 1712.21,1141.04 1847,1297.5C 1860.89,1313.72 1874.39,1330.22 1887.5,1347C 1644.52,1572.72 1382.68,1773.22 1102,1948.5C 971.813,1851.69 847.48,1747.36 729,1635.5C 716.228,1550.67 708.561,1465.34 706,1379.5C 704.686,1344.84 704.353,1310.17 705,1275.5C 907.557,1102.09 1123.06,946.761 1351.5,809.5 Z M 1917.5,1385.5 C 2034.51,1525.85 2133.51,1678.68 2214.5,1844C 2155.73,1870.02 2127.9,1915.19 2131,1979.5C 2139.44,2026.61 2165.27,2060.44 2208.5,2081C 2235.99,2093.19 2264.66,2097.35 2294.5,2093.5C 2300.2,2135.93 2298.03,2177.93 2288,2219.5C 2274.24,2270.25 2244.74,2308.75 2199.5,2335C 2156.68,2357.57 2111.01,2369.23 2062.5,2370C 1985.2,2370.39 1909.54,2359.39 1835.5,2337C 1819.71,2332.4 1804.04,2327.4 1788.5,2322C 1825.67,2272.19 1855.5,2218.02 1878,2159.5C 1911.34,2068.81 1934.01,1975.48 1946,1879.5C 1949.75,1851.73 1952.92,1823.9 1955.5,1796C 1955.77,1784.29 1950.27,1777.45 1939,1775.5C 1930.53,1776.3 1925.53,1780.96 1924,1789.5C 1912.02,1878.39 1893.02,1965.72 1867,2051.5C 1847.54,2114.41 1820.54,2173.75 1786,2229.5C 1769.27,2255.4 1749.77,2279.07 1727.5,2300.5C 1629.94,2264.05 1535.6,2220.55 1444.5,2170C 1338.15,2110.59 1235.81,2045.25 1137.5,1974C 1313.48,1868.03 1482.14,1751.7 1643.5,1625C 1738.28,1549.4 1829.62,1469.57 1917.5,1385.5 Z M 400.5,1570.5 C 409.166,1636.49 420.666,1702.15 435,1767.5C 464.433,1898.82 511.766,2023.15 577,2140.5C 588.906,2160.9 601.406,2180.9 614.5,2200.5C 613.91,2201.8 612.91,2202.63 611.5,2203C 550.383,2226.71 488.216,2247.21 425,2264.5C 409.276,2206.78 372.109,2171.61 313.5,2159C 256.698,2149.27 208.532,2165.1 169,2206.5C 152.476,2226.55 142.643,2249.55 139.5,2275.5C 87.7355,2256.7 59.5688,2219.7 55,2164.5C 53.7406,2122.13 60.7406,2081.13 76,2041.5C 97.9863,1985.19 124.986,1931.53 157,1880.5C 213.804,1792.01 277.138,1708.34 347,1629.5C 364.671,1609.66 382.504,1590 400.5,1570.5 Z M 729.5,1640.5 C 846.419,1751.04 968.752,1854.71 1096.5,1951.5C 1019.2,2000.08 940.029,2045.75 859,2088.5C 858.5,2088.17 858,2087.83 857.5,2087.5C 817.095,2006.33 785.929,1921.67 764,1833.5C 751.309,1782.21 740.476,1730.55 731.5,1678.5C 732.325,1677.61 733.325,1677.28 734.5,1677.5C 732.553,1665.2 730.886,1652.87 729.5,1640.5 Z M 1129.5,1977.5 C 1131.78,1977.61 1133.78,1978.44 1135.5,1980C 1278.54,2086.16 1430.54,2178.83 1591.5,2258C 1631.69,2277.35 1672.52,2295.18 1714,2311.5C 1715.26,2311.85 1715.59,2312.52 1715,2313.5C 1633.86,2388.13 1538.02,2430.97 1427.5,2442C 1251.71,2457.87 1103.87,2401.7 984,2273.5C 941.011,2225.51 903.844,2173.34 872.5,2117C 960.146,2073.52 1045.81,2027.02 1129.5,1977.5 Z"/></g>
<g><path style="opacity:0.995" fill="#000000" d="M 1290.5,1073.5 C 1378.31,1071.97 1443.48,1109.31 1486,1185.5C 1510.71,1236.7 1515.37,1289.7 1500,1344.5C 1482.28,1400.22 1447.78,1442.05 1396.5,1470C 1348.97,1493.28 1299.63,1497.95 1248.5,1484C 1175.49,1459.66 1128.33,1410.49 1107,1336.5C 1090.73,1266.26 1104.73,1202.93 1149,1146.5C 1186.47,1103.52 1233.63,1079.18 1290.5,1073.5 Z"/></g>
<g><path style="opacity:0.422" fill="#949594" d="M 4069.5,1972.5 C 4069.5,1972.83 4069.5,1973.17 4069.5,1973.5C 4068.19,1974.48 4066.85,1975.48 4065.5,1976.5C 4064.9,1973.76 4066.23,1972.42 4069.5,1972.5 Z"/></g>
</svg>
